<?xml version="1.0" encoding="utf-8"?>
<!-- Generator: Adobe Illustrator 24.0.2, SVG Export Plug-In . SVG Version: 6.00 Build 0)  -->
<svg version="1.1" id="Warstwa_2" xmlns="http://www.w3.org/2000/svg" xmlns:xlink="http://www.w3.org/1999/xlink" x="0px" y="0px"
	 viewBox="0 0 1841.7852783 1887.3955078" style="enable-background:new 0 0 1841.7852783 1887.3955078;" xml:space="preserve">
<style type="text/css">
	.st0{fill:#C43124;stroke:#000000;stroke-width:7;stroke-miterlimit:10;}
	.st1{fill:none;stroke:#000000;stroke-width:7;stroke-miterlimit:10;}
	.st2{fill:#BFD2DE;stroke:#000000;stroke-width:7;stroke-miterlimit:10;}
	.st3{fill:#E8A627;stroke:#000000;stroke-width:7;stroke-miterlimit:10;}
	.st4{fill:#00A7C8;stroke:#000000;stroke-width:7;stroke-miterlimit:10;}
	.st5{fill:#9DB81E;stroke:#000000;stroke-width:7;stroke-miterlimit:10;}
</style>
<g>
	
		<ellipse transform="matrix(0.3805967 -0.9247411 0.9247411 0.3805967 -325.1578979 1405.8660889)" class="st0" cx="886.8683472" cy="945.6560669" rx="253.4417114" ry="232.4443359"/>
	<path class="st1" d="M761.8550415,92.3865891c0,0,45.9105835-66.1828079,126.4031982-31.6007996"/>
	<path class="st1" d="M754.1039429,149.6257782c0,0,64.9902954-104.9385071,187.2197876-35.774498"/>
	<path class="st1" d="M1508.2354736,436.2071838c0,0,129.2813721-0.8287048,134.2536621,131.7676086"/>
	<path class="st1" d="M1697.1851807,1357.7514648c0,0,43.09375-17.4031982,44.7512207-81.21521"/>
	<path class="st1" d="M1666.5222168,1178.74646c0,0,70.4417725,87.8450928-55.5246582,194.7508545"/>
	<path class="st1" d="M720.9448242,1733.9935303c0,0,71.62677,80.3864746,165.9235229,55.5246582"/>
	<path class="st1" d="M68.736763,1379.2984619c0,0-3.3149033,62.154541,28.1767197,76.2427979"/>
	<path class="st1" d="M123.4327393,1375.1547852c0,0-13.2596283,89.5025635,77.0716095,129.2813721"/>
	<path class="st1" d="M62.2131081,478.1993713c0,0,19.5405617-75.4976501,139.4485779-74.609436"/>
	<path class="st2" d="M1226.413208,1166.3432617c0,0,33.8557129-412.3131104-59.2473145-617.8651123
		c0,0,56.8291016,436.4957275-6.0456543,667.4394531L1226.413208,1166.3432617z"/>
	<path class="st1" d="M109.2881088,596.3309326c0,0-1.7764206-131.4546814,136.7839661-150.9952698"/>
	<path class="st2" d="M906.8534546,636.0971069c-193.0551147,87.1276245-479.8539124,279.069519-479.8539124,279.069519
		c75.4238892-101.4321289,336.8066711-257.4815674,336.8066711-257.4815674l86.4442139-46.5585938L906.8534546,636.0971069z"/>
	<path class="st2" d="M1482.2293701,1405.3383789L1482.2293701,1405.3383789
		c0.0112305-0.0021973,328.7841797-63.4282227,13.3518066-472.3219604c0,0-265.3681641-330.4585571-786.0905762-492.349823
		c0,0-460.7026367-124.4426575-532.0048828,164.3238831c-17.5042725,70.890625-5.5821533,145.8371582,31.7731934,208.5783691
		c208.9643402,350.9720459,723.8204346,511.6397705,894.1115723,551.7139893
		c-102.3155518-53.8131104-204.6311035-107.6262207-306.9466553-161.439209
		c-38.1040039-20.0407715-76.2080078-40.081665-114.3120117-60.1224365
		c-71.1264648-37.4090576-138.7718506-81.1472168-201.7053223-131.125061
		C353.6417847,911.9279785,296.4393311,827.1283569,271.7085266,764.6801758
		c-29.2455139-73.8484497-1.3748169-158.5430298,66.6517029-199.5465088
		c134.3505554-80.9806824,332.7437744-12.6452637,332.7437744-12.6452637
		c347.539978,83.1949463,620.6396484,329.2950439,714.3458252,422.5726929
		c31.4576416,31.3139038,58.8580322,66.4942017,81.0693359,104.9234009
		c101.6539307,175.8776855-14.331543,218.5390625-14.331543,218.5390625L1482.2293701,1405.3383789z"/>
	<path class="st2" d="M1048.6705322,584.0762329c0,0,293.1068115-123.4341736,405.6544189-10.9179688
		c126.4857178,126.4503174-87.1275635,339.4075317-87.1275635,339.4075317s-195.7728271,217.5072021-615.0948486,383.62146
		c0,0-453.8437805,183.3581543-474.6503906-41.6131592l-104.0329437-26.0081787
		c0,0-109.2345963,306.8972168,392.7244263,226.2716064c378.8092041-60.8449707,689.4829712-297.2128906,819.1223755-409.5307617
		c64.4992676-55.8812866,118.7363281-122.7231445,159.1098633-197.9084473
		c57.6376953-107.3354492,99.0748291-252.3095703-25.2824707-340.0064087
		c-36.1551514-25.4966431-78.7111816-40.3798218-122.8062744-43.9712524
		c-73.2600098-5.9668884-206.0023193-11.6736755-416.2852173,85.0574951L1048.6705322,584.0762329z"/>
	<path class="st2" d="M1228.34375,1167.8720703c0,0-51.5047607,609.081543-356.2054443,577.644165
		c-304.7006226-31.4372559-351.8566284-486.0699463-351.8566284-486.0699463s-82.2208252-571.9182739,119.7037964-928.6114502
		s395.385376-120.9129486,395.385376-120.9129486l-78.5934448,78.593399
		c-172.9055176-116.076416-275.6815186,234.571106-275.6815186,234.571106
		c-89.4755859,258.7537231-54.4108276,657.7664795-54.4108276,657.7664795
		c53.2017212,487.2790527,275.6710815,459.4691162,275.6710815,459.4691162
		c174.8787231-1.1981201,258.4790649-426.8088379,258.4790649-426.8088379L1228.34375,1167.8720703z"/>
	
		<ellipse transform="matrix(0.5459058 -0.8378466 0.8378466 0.5459058 -525.4519043 1761.8233643)" class="st3" cx="1362.6390381" cy="1365.6658936" rx="112.6456146" ry="129.2138214"/>
	<ellipse class="st4" cx="1060.5576172" cy="336.197113" rx="112.7396851" ry="127.2480545"/>
	
		<ellipse transform="matrix(0.6356409 -0.7719849 0.7719849 0.6356409 -782.8723755 617.2779541)" class="st5" cx="262.4917908" cy="1137.9932861" rx="127.2480545" ry="113.0003815"/>
</g>
</svg>
